<svg width="40" height="40" viewBox="0 0 40 40" fill="none" xmlns="http://www.w3.org/2000/svg">
<g clip-path="url(#clip0_348_74)">
<path d="M39.5 20C39.5 30.7696 30.7696 39.5 20 39.5C9.23045 39.5 0.5 30.7696 0.5 20C0.5 9.23045 9.23045 0.5 20 0.5C30.7696 0.5 39.5 9.23045 39.5 20Z" stroke="white"/>
<path d="M21.5239 21.7023H24.8727L25.5109 17.5255H21.5276V14.8167C21.5276 13.6744 22.0857 12.5599 23.8681 12.5599H25.6746V9.00459C24.6114 8.83138 23.5368 8.73686 22.4597 8.7218C19.1797 8.7218 17.0364 10.7218 17.0364 14.3441V17.5255H13.3955V21.7023H17.0402V31.7971H21.5276L21.5239 21.7023Z" fill="white"/>
</g>
<defs>
<clipPath id="clip0_348_74">
<rect width="40" height="40" fill="white"/>
</clipPath>
</defs>
</svg>
