<svg width="40" height="40" viewBox="0 0 40 40" fill="none" xmlns="http://www.w3.org/2000/svg">
<g clip-path="url(#clip0_564_1808)">
<path d="M39.5 20C39.5 30.7696 30.7696 39.5 20 39.5C9.23045 39.5 0.5 30.7696 0.5 20C0.5 9.23045 9.23045 0.5 20 0.5C30.7696 0.5 39.5 9.23045 39.5 20Z" stroke="black"/>
<path d="M21.5229 21.7023H24.8717L25.5099 17.5255H21.5266V14.8167C21.5266 13.6744 22.0848 12.5599 23.8671 12.5599H25.6736V9.00459C24.6104 8.83138 23.5358 8.73686 22.4587 8.7218C19.1787 8.7218 17.0355 10.7218 17.0355 14.3441V17.5255H13.3945V21.7023H17.0392V31.7971H21.5266L21.5229 21.7023Z" fill="black"/>
</g>
<defs>
<clipPath id="clip0_564_1808">
<rect width="40" height="40" fill="white"/>
</clipPath>
</defs>
</svg>
