<svg width="40" height="40" viewBox="0 0 40 40" fill="none" xmlns="http://www.w3.org/2000/svg">
<g clip-path="url(#clip0_348_67)">
<mask id="mask0_348_67" style="mask-type:luminance" maskUnits="userSpaceOnUse" x="0" y="0" width="40" height="40">
<path d="M40 0H0V40H40V0Z" fill="white"/>
</mask>
<g mask="url(#mask0_348_67)">
<path d="M39.5 20C39.5 30.7696 30.7696 39.5 20 39.5C9.23045 39.5 0.5 30.7696 0.5 20C0.5 9.23045 9.23045 0.5 20 0.5C30.7696 0.5 39.5 9.23045 39.5 20Z" stroke="white"/>
<path fill-rule="evenodd" clip-rule="evenodd" d="M19.9999 9.86047C22.7534 9.86047 23.0994 9.87164 24.1804 9.92187C25.0217 9.93796 25.854 10.0971 26.6417 10.3926C27.315 10.6536 27.9266 11.0521 28.4371 11.5628C28.9478 12.0734 29.3463 12.6848 29.6073 13.3581C29.9022 14.1442 30.0613 14.9746 30.078 15.814C30.1283 16.8949 30.1394 17.2409 30.1394 19.9944C30.1394 22.7479 30.1283 23.094 30.078 24.1749C30.062 25.0162 29.9028 25.8486 29.6073 26.6363C29.3463 27.3096 28.9478 27.9211 28.4371 28.4316C27.9266 28.9423 27.315 29.3408 26.6417 29.6019C25.8561 29.8986 25.0256 30.0595 24.1859 30.0781C23.105 30.1284 22.759 30.1395 20.0055 30.1395C17.252 30.1395 16.9059 30.1284 15.825 30.0781C14.9838 30.062 14.1514 29.9029 13.3636 29.6075C12.6903 29.3464 12.0788 28.9479 11.5682 28.4372C11.0576 27.9267 10.659 27.3152 10.398 26.6419C10.1013 25.8562 9.94026 25.0257 9.92175 24.1861C9.87151 23.1051 9.86035 22.7591 9.86035 20.0056C9.86035 17.2521 9.87151 16.9061 9.92175 15.8251C9.93784 14.9839 10.097 14.1515 10.3924 13.3637C10.6528 12.6894 11.0511 12.0768 11.5617 11.5652C12.0724 11.0536 12.6842 10.6542 13.358 10.3926C14.1441 10.0978 14.9745 9.93859 15.8138 9.92187C16.9004 9.87164 17.2464 9.86047 19.9999 9.86047ZM19.9999 23.3805C20.6685 23.3805 21.3221 23.1821 21.878 22.8108C22.4339 22.4393 22.8672 21.9113 23.123 21.2936C23.3789 20.6759 23.4458 19.9963 23.3154 19.3405C23.185 18.6848 22.863 18.0824 22.3902 17.6097C21.9175 17.1369 21.315 16.8149 20.6594 16.6845C20.0036 16.5541 19.324 16.621 18.7063 16.8769C18.0885 17.1327 17.5606 17.566 17.1891 18.1219C16.8177 18.6778 16.6194 19.3314 16.6194 20C16.6199 20.8964 16.9762 21.7559 17.6101 22.3898C18.2439 23.0236 19.1035 23.3799 19.9999 23.3805ZM19.9999 14.7926C21.0302 14.7926 22.0373 15.0981 22.894 15.6705C23.7508 16.2429 24.4183 17.0565 24.8127 18.0084C25.207 18.9602 25.31 20.0076 25.1091 21.0182C24.9082 22.0287 24.412 22.9568 23.6834 23.6854C22.9549 24.414 22.0267 24.9101 21.0163 25.1111C20.0057 25.312 18.9582 25.2089 18.0064 24.8147C17.0545 24.4203 16.2409 23.7528 15.6685 22.896C15.0961 22.0393 14.7906 21.0322 14.7906 20.0019C14.7906 18.6203 15.3394 17.2953 16.3164 16.3183C17.2933 15.3414 18.6183 14.7926 19.9999 14.7926ZM26.6287 14.5879C26.6287 14.8286 26.5573 15.0638 26.4237 15.2639C26.2899 15.464 26.1 15.62 25.8777 15.712C25.6553 15.8041 25.4107 15.8282 25.1746 15.7813C24.9385 15.7343 24.7217 15.6184 24.5517 15.4483C24.3815 15.2781 24.2656 15.0613 24.2187 14.8253C24.1716 14.5893 24.1958 14.3446 24.2879 14.1223C24.38 13.9 24.5359 13.7099 24.7361 13.5762C24.9361 13.4425 25.1714 13.3712 25.412 13.3712C25.7348 13.3712 26.0442 13.4994 26.2723 13.7275C26.5005 13.9557 26.6287 14.2652 26.6287 14.5879Z" fill="white"/>
</g>
</g>
<defs>
<clipPath id="clip0_348_67">
<rect width="40" height="40" fill="white"/>
</clipPath>
</defs>
</svg>
