<svg width="40" height="40" viewBox="0 0 40 40" fill="none" xmlns="http://www.w3.org/2000/svg">
<g clip-path="url(#clip0_564_1801)">
<mask id="mask0_564_1801" style="mask-type:luminance" maskUnits="userSpaceOnUse" x="0" y="0" width="40" height="40">
<path d="M40 0H0V40H40V0Z" fill="white"/>
</mask>
<g mask="url(#mask0_564_1801)">
<path d="M39.5 20C39.5 30.7696 30.7696 39.5 20 39.5C9.23045 39.5 0.5 30.7696 0.5 20C0.5 9.23045 9.23045 0.5 20 0.5C30.7696 0.5 39.5 9.23045 39.5 20Z" stroke="black"/>
<path fill-rule="evenodd" clip-rule="evenodd" d="M20.0009 9.86047C22.7544 9.86047 23.1004 9.87164 24.1813 9.92187C25.0226 9.93796 25.855 10.0971 26.6427 10.3926C27.316 10.6536 27.9276 11.0521 28.4381 11.5628C28.9488 12.0734 29.3473 12.6848 29.6083 13.3581C29.9032 14.1442 30.0623 14.9746 30.079 15.814C30.1292 16.8949 30.1404 17.2409 30.1404 19.9944C30.1404 22.7479 30.1292 23.094 30.079 24.1749C30.063 25.0162 29.9037 25.8486 29.6083 26.6363C29.3473 27.3096 28.9488 27.9211 28.4381 28.4316C27.9276 28.9423 27.316 29.3408 26.6427 29.6019C25.857 29.8986 25.0265 30.0595 24.1869 30.0781C23.106 30.1284 22.7599 30.1395 20.0064 30.1395C17.253 30.1395 16.9069 30.1284 15.826 30.0781C14.9848 30.062 14.1524 29.9029 13.3646 29.6075C12.6913 29.3464 12.0798 28.9479 11.5692 28.4372C11.0586 27.9267 10.66 27.3152 10.399 26.6419C10.1023 25.8562 9.94124 25.0257 9.92272 24.1861C9.87249 23.1051 9.86133 22.7591 9.86133 20.0056C9.86133 17.2521 9.87249 16.9061 9.92272 15.8251C9.93882 14.9839 10.098 14.1515 10.3934 13.3637C10.6538 12.6894 11.052 12.0768 11.5627 11.5652C12.0733 11.0536 12.6852 10.6542 13.359 10.3926C14.145 10.0978 14.9755 9.93859 15.8148 9.92187C16.9013 9.87164 17.2474 9.86047 20.0009 9.86047ZM20.0009 23.3805C20.6695 23.3805 21.3231 23.1821 21.879 22.8108C22.4349 22.4393 22.8682 21.9113 23.124 21.2936C23.3798 20.6759 23.4468 19.9963 23.3164 19.3405C23.186 18.6848 22.8639 18.0824 22.3912 17.6097C21.9184 17.1369 21.316 16.8149 20.6604 16.6845C20.0046 16.5541 19.325 16.621 18.7073 16.8769C18.0895 17.1327 17.5616 17.566 17.1901 18.1219C16.8187 18.6778 16.6204 19.3314 16.6204 20C16.6209 20.8964 16.9772 21.7559 17.6111 22.3898C18.2449 23.0236 19.1045 23.3799 20.0009 23.3805ZM20.0009 14.7926C21.0312 14.7926 22.0383 15.0981 22.895 15.6705C23.7517 16.2429 24.4193 17.0565 24.8137 18.0084C25.2079 18.9602 25.311 20.0076 25.1101 21.0182C24.9091 22.0287 24.413 22.9568 23.6844 23.6854C22.9558 24.414 22.0277 24.9101 21.0172 25.1111C20.0066 25.312 18.9592 25.2089 18.0074 24.8147C17.0555 24.4203 16.2419 23.7528 15.6695 22.896C15.0971 22.0393 14.7916 21.0322 14.7916 20.0019C14.7916 18.6203 15.3404 17.2953 16.3173 16.3183C17.2943 15.3414 18.6193 14.7926 20.0009 14.7926ZM26.6297 14.5879C26.6297 14.8286 26.5583 15.0638 26.4247 15.2639C26.2909 15.464 26.101 15.62 25.8786 15.712C25.6563 15.8041 25.4117 15.8282 25.1756 15.7813C24.9395 15.7343 24.7227 15.6184 24.5527 15.4483C24.3824 15.2781 24.2665 15.0613 24.2197 14.8253C24.1726 14.5893 24.1968 14.3446 24.2889 14.1223C24.381 13.9 24.5369 13.7099 24.737 13.5762C24.937 13.4425 25.1724 13.3712 25.413 13.3712C25.7357 13.3712 26.0451 13.4994 26.2732 13.7275C26.5015 13.9557 26.6297 14.2652 26.6297 14.5879Z" fill="black"/>
</g>
</g>
<defs>
<clipPath id="clip0_564_1801">
<rect width="40" height="40" fill="white"/>
</clipPath>
</defs>
</svg>
