<svg width="40" height="40" viewBox="0 0 40 40" fill="none" xmlns="http://www.w3.org/2000/svg">
<g clip-path="url(#clip0_564_1794)">
<path d="M39.5 20C39.5 30.7696 30.7696 39.5 20 39.5C9.23045 39.5 0.5 30.7696 0.5 20C0.5 9.23045 9.23045 0.5 20 0.5C30.7696 0.5 39.5 9.23045 39.5 20Z" stroke="black"/>
<path d="M15.5188 15.8345H11.6602V28.2791H15.5188V15.8345Z" fill="black"/>
<path d="M25.3492 15.5851C23.8608 15.4605 22.4878 16.3293 21.7399 17.5777V15.8344H18.0078V28.2791H21.8646V22.0577C21.8646 20.4391 22.2366 18.8205 24.2292 18.8205C26.2218 18.8205 26.2199 20.6809 26.2199 22.1805V28.2791H30.0785L29.9539 21.5591C29.9539 18.1991 29.3306 15.5851 25.3492 15.5851Z" fill="black"/>
<path d="M13.5271 14.093C14.7642 14.093 15.7671 13.0902 15.7671 11.853C15.7671 10.6159 14.7642 9.61304 13.5271 9.61304C12.29 9.61304 11.2871 10.6159 11.2871 11.853C11.2871 13.0902 12.29 14.093 13.5271 14.093Z" fill="black"/>
</g>
<defs>
<clipPath id="clip0_564_1794">
<rect width="40" height="40" fill="white"/>
</clipPath>
</defs>
</svg>
