<svg width="15" height="15" viewBox="0 0 15 15" fill="none" xmlns="http://www.w3.org/2000/svg">
<g clip-path="url(#clip0_563_1418)">
<path d="M7.49984 0.0262451C5.84606 0.0280645 4.26052 0.685792 3.09105 1.85514C1.92159 3.02448 1.2637 4.60996 1.26172 6.26375C1.26172 7.87 2.50547 10.3837 4.95859 13.735C5.25063 14.1351 5.633 14.4606 6.07459 14.6849C6.51619 14.9093 7.00452 15.0263 7.49984 15.0263C7.99517 15.0263 8.4835 14.9093 8.92509 14.6849C9.36668 14.4606 9.74906 14.1351 10.0411 13.735C12.4942 10.3837 13.738 7.87 13.738 6.26375C13.736 4.60996 13.0781 3.02448 11.9086 1.85514C10.7392 0.685792 9.15363 0.0280645 7.49984 0.0262451ZM7.49984 8.75C7.00539 8.75 6.52204 8.60337 6.11092 8.32867C5.6998 8.05397 5.37936 7.66352 5.19014 7.2067C5.00093 6.74989 4.95142 6.24722 5.04788 5.76227C5.14434 5.27732 5.38245 4.83186 5.73208 4.48223C6.08171 4.1326 6.52717 3.8945 7.01212 3.79803C7.49707 3.70157 7.99974 3.75108 8.45655 3.9403C8.91337 4.12952 9.30381 4.44995 9.57852 4.86107C9.85322 5.27219 9.99984 5.75554 9.99984 6.25C9.99984 6.91304 9.73645 7.54892 9.26761 8.01776C8.79877 8.4866 8.16289 8.75 7.49984 8.75Z" fill="black"/>
</g>
<defs>
<clipPath id="clip0_563_1418">
<rect width="15" height="15" fill="white"/>
</clipPath>
</defs>
</svg>
