<svg width="15" height="15" viewBox="0 0 15 15" fill="none" xmlns="http://www.w3.org/2000/svg">
<g clip-path="url(#clip0_564_1787)">
<path d="M14.9713 3.46375L9.71 8.725C9.12336 9.31015 8.32859 9.63877 7.5 9.63877C6.67141 9.63877 5.87664 9.31015 5.29 8.725L0.02875 3.46375C0.02 3.5625 0 3.65187 0 3.75V11.25C0.000992411 12.0785 0.330551 12.8728 0.916387 13.4586C1.50222 14.0444 2.2965 14.374 3.125 14.375H11.875C12.7035 14.374 13.4978 14.0444 14.0836 13.4586C14.6694 12.8728 14.999 12.0785 15 11.25V3.75C15 3.65187 14.98 3.5625 14.9713 3.46375Z" fill="black"/>
<path d="M8.82609 7.84125L14.5348 2.13188C14.2583 1.67332 13.8683 1.29377 13.4023 1.02983C12.9364 0.765889 12.4103 0.626463 11.8748 0.625H3.12484C2.58936 0.626463 2.06328 0.765889 1.59736 1.02983C1.13144 1.29377 0.741393 1.67332 0.464844 2.13188L6.17359 7.84125C6.52583 8.19207 7.00271 8.38904 7.49984 8.38904C7.99698 8.38904 8.47386 8.19207 8.82609 7.84125Z" fill="black"/>
</g>
<defs>
<clipPath id="clip0_564_1787">
<rect width="15" height="15" fill="white"/>
</clipPath>
</defs>
</svg>
