<svg width="15" height="15" viewBox="0 0 15 15" fill="none" xmlns="http://www.w3.org/2000/svg">
<g clip-path="url(#clip0_564_1783)">
<path d="M15.0005 3.90005C15.0005 8.67505 8.6692 15.0001 3.90045 15.0001C2.8567 15.0001 1.8817 14.6063 1.16295 13.8875L0.537952 13.1688C-0.187048 12.4438 -0.187048 11.2188 0.569203 10.4625C0.587952 10.4438 2.0942 9.28755 2.0942 9.28755C2.8442 8.57505 4.02545 8.57505 4.7692 9.28755L5.6817 10.0188C7.6817 9.1688 9.10045 7.7438 10.013 5.67505L9.28795 4.76255C8.5692 4.0188 8.5692 2.8313 9.28795 2.08755C9.28795 2.08755 10.4442 0.581299 10.463 0.562549C11.2192 -0.193701 12.4442 -0.193701 13.2005 0.562549L13.8567 1.1313C14.6067 1.87505 15.0005 2.85005 15.0005 3.8938V3.90005Z" fill="black"/>
</g>
<defs>
<clipPath id="clip0_564_1783">
<rect width="15" height="15" fill="white"/>
</clipPath>
</defs>
</svg>
