<svg width="15" height="15" viewBox="0 0 15 15" fill="none" xmlns="http://www.w3.org/2000/svg">
<g clip-path="url(#clip0_348_41)">
<path d="M15 3.90005C15 8.67505 8.66871 15.0001 3.89996 15.0001C2.85621 15.0001 1.88121 14.6063 1.16246 13.8875L0.537464 13.1688C-0.187536 12.4438 -0.187536 11.2188 0.568714 10.4625C0.587464 10.4438 2.09371 9.28755 2.09371 9.28755C2.84371 8.57505 4.02496 8.57505 4.76871 9.28755L5.68121 10.0188C7.68122 9.1688 9.09997 7.7438 10.0125 5.67505L9.28747 4.76255C8.56872 4.0188 8.56872 2.8313 9.28747 2.08755C9.28747 2.08755 10.4437 0.581299 10.4625 0.562549C11.2187 -0.193701 12.4437 -0.193701 13.2 0.562549L13.8562 1.1313C14.6062 1.87505 15 2.85005 15 3.8938V3.90005Z" fill="white"/>
</g>
<defs>
<clipPath id="clip0_348_41">
<rect width="15" height="15" fill="white"/>
</clipPath>
</defs>
</svg>
