<svg width="40" height="40" viewBox="0 0 40 40" fill="none" xmlns="http://www.w3.org/2000/svg">
<g clip-path="url(#clip0_564_1790)">
<path d="M39.5 20C39.5 30.7696 30.7696 39.5 20 39.5C9.23045 39.5 0.5 30.7696 0.5 20C0.5 9.23045 9.23045 0.5 20 0.5C30.7696 0.5 39.5 9.23045 39.5 20Z" stroke="black"/>
<path d="M29.866 14.9172C29.7481 14.4778 29.5167 14.0772 29.1951 13.7556C28.8734 13.4339 28.4728 13.2025 28.0335 13.0846C26.4186 12.6511 19.9349 12.6511 19.9349 12.6511C19.9349 12.6511 13.4511 12.6511 11.8344 13.0846C11.3956 13.2036 10.9955 13.4353 10.674 13.7568C10.3525 14.0783 10.1208 14.4783 10.0018 14.9172C9.56835 16.5339 9.56836 19.9069 9.56836 19.9069C9.56836 19.9069 9.56835 23.28 10.0018 24.8967C10.1208 25.3355 10.3525 25.7356 10.674 26.0571C10.9955 26.3786 11.3956 26.6103 11.8344 26.7293C13.4511 27.1628 19.9349 27.1628 19.9349 27.1628C19.9349 27.1628 26.4167 27.1628 28.0335 26.7293C28.4728 26.6114 28.8734 26.38 29.1951 26.0583C29.5167 25.7366 29.7481 25.336 29.866 24.8967C30.2995 23.28 30.2995 19.9069 30.2995 19.9069C30.2995 19.9069 30.2995 16.5339 29.866 14.9172ZM17.8604 23.0158V16.7981L23.2558 19.9069L17.8604 23.0158Z" fill="black"/>
</g>
<defs>
<clipPath id="clip0_564_1790">
<rect width="40" height="40" fill="white"/>
</clipPath>
</defs>
</svg>
